# xmcd
#
# Track frame offsets:
#	182
#	26900
#	54197
#	78660
#
# Disc length: 1388 seconds
# Revision: 2
# Processed by: cddbd v1.5.2PL0 Copyright (c) Steve Scherf et al.
# Submitted via: dBpowerAMP V12.0
#
DISCID=2a056a04
DTITLE=Bad Boys Inc. - Walking On Air
DYEAR=1993
DGENRE=Pop
TTITLE0=Walking On Air [Scorch Mix]
TTITLE1=Never Ever Say Goodbye [Extended 12” Remix]
TTITLE2=Never Ever Say Goodbye [Extended 12” Dub]
TTITLE3=Christmas Fantasy
EXTD=
EXTT0=
EXTT1=
EXTT2=
EXTT3=
PLAYORDER=
